<svg width="32" height="32" viewBox="0 0 32 32" fill="none" xmlns="http://www.w3.org/2000/svg">
<path d="M13.3514 3.21875C14.7353 2.45899 16.4078 2.45899 17.7917 3.21875L25.9053 7.67329C27.3948 8.49105 28.3215 10.0624 28.3215 11.7701V20.2296C28.3215 21.9373 27.3948 23.5087 25.9053 24.3264L17.7917 28.781C16.4078 29.5407 14.7353 29.5407 13.3514 28.781L5.23776 24.3264C3.74828 23.5087 2.82153 21.9373 2.82153 20.2296V11.7701C2.82153 10.0624 3.74828 8.49105 5.23776 7.67329L13.3514 3.21875Z" fill="#0BC15A"/>
<path d="M10.3556 24.1665L12.794 22.9767C12.9938 22.8792 13.1207 22.6753 13.1207 22.4518V11.5259C13.1207 11.3184 13.1787 11.115 13.2882 10.9391L13.3207 10.8868C13.5152 10.6057 13.7777 10.3793 14.0835 10.2289L14.2103 10.1665L14.3238 10.1277C14.6413 10.019 14.9744 9.96362 15.3098 9.96362H15.9893C16.382 9.96362 16.7721 10.0285 17.1438 10.1557L17.1754 10.1665L17.3901 10.2721C17.6391 10.3946 17.8573 10.5721 18.0286 10.7914C18.078 10.8548 18.1196 10.924 18.1524 10.9975L18.2465 11.2083C18.3227 11.4452 18.3614 11.6927 18.3614 11.9417V24.1665L20.7106 22.9787C20.9065 22.8797 21.03 22.678 21.03 22.4575V11.4675C21.03 10.9111 20.8237 10.3748 20.4513 9.96362L20.0639 9.53579C19.8512 9.30083 19.6155 9.0879 19.3606 8.90022C19.1024 8.71012 18.8257 8.54689 18.5348 8.41302L18.5256 8.40879C18.3093 8.30925 18.0859 8.22593 17.8574 8.15951L17.706 8.1155C17.2227 7.97505 16.7257 7.88775 16.2237 7.85514L15.8857 7.83318L15.2727 7.86542C14.7829 7.89118 14.2979 7.97572 13.828 8.11724L13.1207 8.33028L12.723 8.48999C12.5169 8.57277 12.3172 8.67099 12.1256 8.78382L11.9695 8.87579C11.625 9.07867 11.3185 9.3407 11.0639 9.65002L11.0259 9.69618C10.8796 9.87385 10.7547 10.0683 10.6537 10.2754C10.4576 10.6777 10.3556 11.1198 10.3556 11.5679V24.1665Z" fill="#0BC15A"/>
<path d="M10.1284 23.6069V11.6062C10.1284 10.4346 10.9459 9.53399 12.581 8.90445C13.4641 8.56345 14.4609 8.39294 15.5713 8.39294C16.6818 8.39294 17.6786 8.56345 18.5617 8.90445C20.1967 9.53399 21.0143 10.4346 21.0143 11.6062V22.4265L18.5223 23.6069H18.3912V12.0653C18.3912 11.6281 18.1157 11.3002 17.5649 11.0816C17.0228 10.863 16.3583 10.7537 15.5713 10.7537C14.7844 10.7537 14.1155 10.863 13.5647 11.0816C13.0226 11.3002 12.7515 11.6281 12.7515 12.0653V22.4265L10.2596 23.6069H10.1284Z" fill="white"/>
</svg>
